<svg width="59" height="53" viewBox="0 0 59 53" fill="none" xmlns="http://www.w3.org/2000/svg">
<path d="M52.5 0C54.0471 0 55.5308 0.614581 56.6248 1.70854C57.7187 2.80251 58.3333 4.28624 58.3333 5.83333V46.6667C58.3333 48.2138 57.7187 49.6975 56.6248 50.7915C55.5308 51.8854 54.0471 52.5 52.5 52.5H5.83333C4.28624 52.5 2.80251 51.8854 1.70854 50.7915C0.614581 49.6975 0 48.2138 0 46.6667V5.83333C0 4.28624 0.614581 2.80251 1.70854 1.70854C2.80251 0.614581 4.28624 0 5.83333 0H52.5ZM43.75 35H14.5833C13.8098 35 13.0679 35.3073 12.5209 35.8543C11.974 36.4013 11.6667 37.1431 11.6667 37.9167C11.6667 38.6902 11.974 39.4321 12.5209 39.9791C13.0679 40.526 13.8098 40.8333 14.5833 40.8333H43.75C44.5235 40.8333 45.2654 40.526 45.8124 39.9791C46.3594 39.4321 46.6667 38.6902 46.6667 37.9167C46.6667 37.1431 46.3594 36.4013 45.8124 35.8543C45.2654 35.3073 44.5235 35 43.75 35ZM23.3333 11.6667H17.5C16.0283 11.6662 14.6108 12.222 13.5317 13.2227C12.4526 14.2234 11.7916 15.595 11.6812 17.0625L11.6667 17.5V23.3333C11.6662 24.805 12.222 26.2225 13.2227 27.3016C14.2234 28.3807 15.595 29.0417 17.0625 29.1521L17.5 29.1667H23.3333C24.805 29.1671 26.2225 28.6113 27.3016 27.6106C28.3807 26.61 29.0417 25.2384 29.1521 23.7708L29.1667 23.3333V17.5C29.1671 16.0283 28.6113 14.6108 27.6106 13.5317C26.61 12.4526 25.2384 11.7916 23.7708 11.6813L23.3333 11.6667ZM43.75 23.3333H35C34.2566 23.3342 33.5416 23.6188 33.001 24.1291C32.4604 24.6395 32.1351 25.3369 32.0916 26.0791C32.048 26.8212 32.2895 27.5519 32.7666 28.122C33.2437 28.6921 33.9206 29.0584 34.6587 29.1463L35 29.1667H43.75C44.4934 29.1658 45.2084 28.8812 45.749 28.3709C46.2896 27.8605 46.6148 27.1631 46.6584 26.4209C46.702 25.6788 46.4605 24.9481 45.9834 24.378C45.5063 23.8079 44.8294 23.4416 44.0912 23.3538L43.75 23.3333ZM23.3333 17.5V23.3333H17.5V17.5H23.3333ZM43.75 11.6667H35C34.2265 11.6667 33.4846 11.974 32.9376 12.5209C32.3906 13.0679 32.0833 13.8098 32.0833 14.5833C32.0833 15.3569 32.3906 16.0987 32.9376 16.6457C33.4846 17.1927 34.2265 17.5 35 17.5H43.75C44.5235 17.5 45.2654 17.1927 45.8124 16.6457C46.3594 16.0987 46.6667 15.3569 46.6667 14.5833C46.6667 13.8098 46.3594 13.0679 45.8124 12.5209C45.2654 11.974 44.5235 11.6667 43.75 11.6667Z" fill="#007CC2"/>
</svg>
