<svg width="58" height="57" viewBox="0 0 58 57" fill="none" xmlns="http://www.w3.org/2000/svg">
<path d="M47.4167 29.9167C48.4083 29.9167 49.3708 30.0333 50.3333 30.1792V15.3333H3.66667V53.25H30.9375C30.2958 51.4125 29.9167 49.4583 29.9167 47.4167C29.9167 37.7625 37.7625 29.9167 47.4167 29.9167ZM18.25 29.9167V25.5417C18.25 24.725 18.8917 24.0833 19.7083 24.0833H34.2917C35.1083 24.0833 35.75 24.725 35.75 25.5417V29.9167H18.25ZM53.25 12.4167H0.75V0.75H53.25V12.4167ZM57.625 42.3125L43.7708 56.1667L35.75 47.4167L39.1333 44.0333L43.7708 48.6708L54.2417 38.2L57.625 42.3125Z" fill="#007CC2"/>
</svg>
