<svg width="60" height="60" viewBox="0 0 60 60" fill="none" xmlns="http://www.w3.org/2000/svg">
<path d="M53.25 12.4167H0.75V0.75H53.25V12.4167ZM29.9167 47.4167C29.9167 49.4583 30.2958 51.4125 30.9375 53.25H3.66667V15.3333H50.3333V30.1792C49.3708 30.0333 48.4083 29.9167 47.4167 29.9167C37.7625 29.9167 29.9167 37.7625 29.9167 47.4167ZM35.75 29.9167V25.5417C35.75 24.725 35.1083 24.0833 34.2917 24.0833H19.7083C18.8917 24.0833 18.25 24.725 18.25 25.5417V29.9167H35.75ZM50.3333 44.5V35.75H44.5V44.5H35.75V50.3333H44.5V59.0833H50.3333V50.3333H59.0833V44.5H50.3333Z" fill="#007CC2"/>
</svg>
