<svg width="48" height="48" viewBox="0 0 48 48" fill="none" xmlns="http://www.w3.org/2000/svg">
<path d="M24 27.1413C26.4461 27.1413 28.516 26.2945 30.2096 24.6009C31.9032 22.9073 32.75 20.8374 32.75 18.3913C32.75 15.9452 31.9032 13.8754 30.2096 12.1817C28.516 10.4881 26.4461 9.64133 24 9.64133C21.5539 9.64133 19.484 10.4881 17.7904 12.1817C16.0968 13.8754 15.25 15.9452 15.25 18.3913C15.25 20.8374 16.0968 22.9073 17.7904 24.6009C19.484 26.2945 21.5539 27.1413 24 27.1413ZM5.38 47.3334C4.03639 47.3334 2.91542 46.8843 2.01708 45.9859C1.11875 45.0876 0.668612 43.9656 0.666668 42.6201V5.38008C0.666668 4.03647 1.11681 2.9155 2.01708 2.01716C2.91736 1.11883 4.03834 0.668692 5.38 0.666748H42.6229C43.9646 0.666748 45.0856 1.11689 45.9858 2.01716C46.8861 2.91744 47.3353 4.03842 47.3333 5.38008V42.623C47.3333 43.9647 46.8842 45.0856 45.9858 45.9859C45.0875 46.8862 43.9656 47.3354 42.62 47.3334H5.38ZM4.81708 44.4167H43.1829C43.5951 44.1581 43.8761 43.814 44.0258 43.3843C44.1756 42.9545 44.3058 42.554 44.4167 42.1826C41.7917 39.6062 38.7418 37.5772 35.2671 36.0955C31.7924 34.6138 28.0367 33.873 24 33.873C19.9633 33.873 16.2076 34.6138 12.7329 36.0955C9.2582 37.5772 6.20833 39.6072 3.58333 42.1855C3.69611 42.5549 3.82639 42.9545 3.97417 43.3843C4.12195 43.814 4.40292 44.1581 4.81708 44.4167Z" fill="#007CC2"/>
</svg>
