<svg width="57" height="63" viewBox="0 0 57 63" fill="none" xmlns="http://www.w3.org/2000/svg">
<path d="M40.7854 35.8333C43.0604 35.8333 45.0642 36.9912 46.2396 38.75H28.375C26.4411 38.75 24.5865 39.5182 23.219 40.8857C21.8516 42.2531 21.0833 44.1078 21.0833 46.0417V57.7083C21.0833 58.1808 21.1271 58.6397 21.2146 59.085C12.6425 58.5425 6.23459 55.4392 2.16876 49.7312C1.19976 48.3724 0.678756 46.7452 0.678345 45.0762V42.3929C0.679118 40.6534 1.37046 38.9854 2.60046 37.7554C3.83045 36.5254 5.49845 35.8341 7.23793 35.8333H40.7854ZM24 0.847916C25.9151 0.847916 27.8115 1.22512 29.5808 1.95801C31.3501 2.69089 32.9578 3.76509 34.312 5.11927C35.6662 6.47346 36.7404 8.08112 37.4733 9.85045C38.2061 11.6198 38.5833 13.5161 38.5833 15.4312C38.5833 17.3464 38.2061 19.2427 37.4733 21.012C36.7404 22.7814 35.6662 24.389 34.312 25.7432C32.9578 27.0974 31.3501 28.1716 29.5808 28.9045C27.8115 29.6374 25.9151 30.0146 24 30.0146C20.1323 30.0146 16.4229 28.4781 13.688 25.7432C10.9531 23.0083 9.41668 19.299 9.41668 15.4312C9.41668 11.5635 10.9531 7.85418 13.688 5.11928C16.4229 2.38437 20.1323 0.847916 24 0.847916ZM24 46.0417C24 44.8813 24.4609 43.7685 25.2814 42.9481C26.1019 42.1276 27.2147 41.6667 28.375 41.6667H51.7083C52.8687 41.6667 53.9815 42.1276 54.8019 42.9481C55.6224 43.7685 56.0833 44.8813 56.0833 46.0417V57.7083C56.0833 58.8686 55.6224 59.9814 54.8019 60.8019C53.9815 61.6224 52.8687 62.0833 51.7083 62.0833H28.375C27.2147 62.0833 26.1019 61.6224 25.2814 60.8019C24.4609 59.9814 24 58.8686 24 57.7083V46.0417ZM53.1667 47.5C52.3931 47.5 51.6513 47.1927 51.1043 46.6457C50.5573 46.0987 50.25 45.3569 50.25 44.5833H47.3333C47.3333 46.1304 47.9479 47.6142 49.0419 48.7081C50.1359 49.8021 51.6196 50.4167 53.1667 50.4167V47.5ZM53.1667 53.3333C51.6196 53.3333 50.1359 53.9479 49.0419 55.0419C47.9479 56.1358 47.3333 57.6196 47.3333 59.1667H50.25C50.25 58.3931 50.5573 57.6512 51.1043 57.1043C51.6513 56.5573 52.3931 56.25 53.1667 56.25V53.3333ZM29.8333 44.5833C29.8333 45.3569 29.5261 46.0987 28.9791 46.6457C28.4321 47.1927 27.6902 47.5 26.9167 47.5V50.4167C28.4638 50.4167 29.9475 49.8021 31.0415 48.7081C32.1354 47.6142 32.75 46.1304 32.75 44.5833H29.8333ZM32.75 59.1667C32.75 57.6196 32.1354 56.1358 31.0415 55.0419C29.9475 53.9479 28.4638 53.3333 26.9167 53.3333V56.25C27.6902 56.25 28.4321 56.5573 28.9791 57.1043C29.5261 57.6512 29.8333 58.3931 29.8333 59.1667H32.75ZM45.1458 51.875C45.1458 50.5213 44.6081 49.223 43.6509 48.2658C42.6937 47.3086 41.3954 46.7708 40.0417 46.7708C38.688 46.7708 37.3897 47.3086 36.4325 48.2658C35.4753 49.223 34.9375 50.5213 34.9375 51.875C34.9375 53.2287 35.4753 54.527 36.4325 55.4842C37.3897 56.4414 38.688 56.9792 40.0417 56.9792C41.3954 56.9792 42.6937 56.4414 43.6509 55.4842C44.6081 54.527 45.1458 53.2287 45.1458 51.875Z" fill="#007CC2"/>
</svg>
