<svg width="63" height="63" viewBox="0 0 63 63" fill="none" xmlns="http://www.w3.org/2000/svg">
<path d="M53.3333 12.4997H0.833336V0.833008H53.3333V12.4997ZM43.125 29.9997H38.75V44.583L49.2792 50.883L51.4667 47.3247L43.125 42.3955V29.9997ZM62.0833 41.6663C62.0833 52.9538 52.9542 62.083 41.6667 62.083C34.725 62.083 28.6292 58.6122 24.925 53.333H3.75V15.4163H50.4167V23.233C57.3 26.5288 62.0833 33.5288 62.0833 41.6663ZM18.3333 29.9997H24.925C26.5875 27.6372 28.7167 25.6247 31.1958 24.1663H19.7917C18.975 24.1663 18.3333 24.808 18.3333 25.6247V29.9997ZM56.25 41.6663C56.25 33.6163 49.7167 27.083 41.6667 27.083C33.6167 27.083 27.0833 33.6163 27.0833 41.6663C27.0833 49.7163 33.6167 56.2497 41.6667 56.2497C49.7167 56.2497 56.25 49.7163 56.25 41.6663Z" fill="#007CC2"/>
</svg>
