<svg width="63" height="63" viewBox="0 0 63 63" fill="none" xmlns="http://www.w3.org/2000/svg">
<path d="M53.3333 12.5H0.833332V0.833374H53.3333V12.5ZM43.125 30H38.75V44.5834L49.2792 50.8834L51.4667 47.325L43.125 42.3959V30ZM62.0833 41.6667C62.0833 52.9542 52.9542 62.0834 41.6667 62.0834C34.725 62.0834 28.6292 58.6125 24.925 53.3334H3.75V15.4167H50.4167V23.2334C57.3 26.5292 62.0833 33.5292 62.0833 41.6667ZM18.3333 30H24.925C26.5875 27.6375 28.7167 25.625 31.1958 24.1667H19.7917C18.975 24.1667 18.3333 24.8084 18.3333 25.625V30ZM56.25 41.6667C56.25 33.6167 49.7167 27.0834 41.6667 27.0834C33.6167 27.0834 27.0833 33.6167 27.0833 41.6667C27.0833 49.7167 33.6167 56.25 41.6667 56.25C49.7167 56.25 56.25 49.7167 56.25 41.6667Z" fill="#007CC2"/>
</svg>
